<svg xmlns="http://www.w3.org/2000/svg" enable-background="new 0 0 24 24" viewBox="0 0 24 24"><path fill="#303c42" d="M6.978,24C3.13,24,0,20.87,0,17.022V6.978C0,3.13,3.13,0,6.978,0h10.044C20.87,0,24,3.13,24,6.978   v10.044C24,20.87,20.87,24,17.022,24H6.978z M6.978,4C5.336,4,4,5.336,4,6.978v10.044C4,18.664,5.336,20,6.978,20h10.044   C18.664,20,20,18.664,20,17.022V6.978c0-0.184-0.017-0.364-0.049-0.538C19.75,7.332,18.952,8,18,8   c-0.092,0-0.183-0.006-0.271-0.018C18.529,9.12,19,10.506,19,12c0,3.86-3.14,7-7,7s-7-3.14-7-7s3.14-7,7-7   c1.494,0,2.88,0.471,4.018,1.271C16.006,6.183,16,6.092,16,6c0-0.952,0.668-1.75,1.56-1.951C17.386,4.017,17.206,4,17.022,4H6.978z    M12,9c-1.654,0-3,1.346-3,3s1.346,3,3,3s3-1.346,3-3S13.654,9,12,9z"/><radialGradient id="a" cx="3.708" cy="20.917" r="26.026" gradientUnits="userSpaceOnUse"><stop offset="0" stop-color="#ffd44f"/><stop offset=".255" stop-color="#f79938"/><stop offset=".6" stop-color="#f73379"/><stop offset=".721" stop-color="#b043a7"/><stop offset=".855" stop-color="#6854d6"/><stop offset=".952" stop-color="#3a5ef4"/><stop offset="1" stop-color="#2962ff"/></radialGradient><path fill="url(#a)" d="M17.022,1H6.978C3.682,1,1,3.682,1,6.978v10.044C1,20.318,3.682,23,6.978,23h10.044   C20.318,23,23,20.318,23,17.022V6.978C23,3.682,20.318,1,17.022,1z M21,17.022C21,19.215,19.215,21,17.022,21H6.978   C4.785,21,3,19.215,3,17.022V6.978C3,4.785,4.785,3,6.978,3h10.044C19.215,3,21,4.785,21,6.978V17.022z M12,6c-3.309,0-6,2.691-6,6   s2.691,6,6,6s6-2.691,6-6S15.309,6,12,6z M12,16c-2.206,0-4-1.794-4-4s1.794-4,4-4s4,1.794,4,4S14.206,16,12,16z M18,5   c-0.551,0-1,0.449-1,1s0.449,1,1,1s1-0.449,1-1S18.551,5,18,5z"/><linearGradient id="b" x1="-.372" x2="24.372" y1="6.231" y2="17.769" gradientUnits="userSpaceOnUse"><stop offset="0" stop-color="#fff" stop-opacity=".2"/><stop offset="1" stop-color="#fff" stop-opacity="0"/></linearGradient><path fill="url(#b)" d="M6.978,24C3.13,24,0,20.87,0,17.022V6.978C0,3.13,3.13,0,6.978,0h10.044   C20.87,0,24,3.13,24,6.978v10.044C24,20.87,20.87,24,17.022,24H6.978z M6.978,4C5.336,4,4,5.336,4,6.978v10.044   C4,18.664,5.336,20,6.978,20h10.044C18.664,20,20,18.664,20,17.022V6.978c0-0.184-0.017-0.364-0.049-0.538   C19.75,7.332,18.952,8,18,8c-0.092,0-0.183-0.006-0.271-0.018C18.529,9.12,19,10.506,19,12c0,3.86-3.14,7-7,7s-7-3.14-7-7   s3.14-7,7-7c1.494,0,2.88,0.471,4.018,1.271C16.006,6.183,16,6.092,16,6c0-0.952,0.668-1.75,1.56-1.951   C17.386,4.017,17.206,4,17.022,4H6.978z M12,9c-1.654,0-3,1.346-3,3s1.346,3,3,3s3-1.346,3-3S13.654,9,12,9z"/></svg>