<svg id="logo" xmlns="http://www.w3.org/2000/svg" viewBox="0 0 571.1 159.16"><defs><style>.cls-1{fill:#6f75b1;}</style></defs><path class="cls-1" d="M247.19,257.16a24.56,24.56,0,0,1-23.38-17.29,30.08,30.08,0,0,1-25.34-45A34.72,34.72,0,0,1,203,142.37a18.34,18.34,0,0,1,19.64-24.27,24.69,24.69,0,0,1,48.95,4.59v110A24.46,24.46,0,0,1,247.19,257.16Zm-21.36-22.54a2.62,2.62,0,0,1,2.56,2.08,19.22,19.22,0,0,0,38-4v-110a19.47,19.47,0,0,0-38.89-1.28,2.61,2.61,0,0,1-3.37,2.33,13.13,13.13,0,0,0-16.92,12.55,13,13,0,0,0,1.39,5.88,2.61,2.61,0,0,1-.94,3.39,29.49,29.49,0,0,0-4.13,46.94,2.61,2.61,0,0,1,.42,3.4,24.85,24.85,0,0,0,20.6,38.75l1.14,0Z" transform="translate(-188.57 -98)"/><path class="cls-1" d="M247,143.65h-.14c-24.12-1.3-24.88-22.87-24.88-23.08a2.61,2.61,0,0,1,5.22-.13c0,.72.74,17,19.94,18a2.61,2.61,0,0,1-.14,5.22Z" transform="translate(-188.57 -98)"/><path class="cls-1" d="M203.42,197.13a13.91,13.91,0,0,1-2-.12,2.61,2.61,0,0,1,.81-5.16c.65.1,14.9,2,18.11-17.45a2.61,2.61,0,0,1,5.15.85C222.16,195.18,208.6,197.13,203.42,197.13Z" transform="translate(-188.57 -98)"/><path class="cls-1" d="M227.75,178.52A14.86,14.86,0,0,1,224,178c-7.09-1.89-10.3-8.63-10.43-8.92a2.61,2.61,0,0,1,4.73-2.21c0,.08,2.38,4.86,7.09,6.09,3.45.9,7.49-.25,12-3.44a2.61,2.61,0,0,1,3,4.27C236,177,231.73,178.52,227.75,178.52Z" transform="translate(-188.57 -98)"/><path class="cls-1" d="M269,163.8a2.61,2.61,0,0,1-2.15-1.12c-.37-.54-9-12.47-25.79-3.9a2.61,2.61,0,1,1-2.37-4.66c21-10.7,32.35,5.44,32.46,5.6a2.61,2.61,0,0,1-.68,3.63A2.57,2.57,0,0,1,269,163.8Z" transform="translate(-188.57 -98)"/><path class="cls-1" d="M256.42,222.87a2.61,2.61,0,0,1-2.55-2.07c-.13-.56-3.1-13.15-19.58-12.26a2.61,2.61,0,0,1-.28-5.22c21-1.16,24.93,16.23,25,16.4a2.61,2.61,0,0,1-2,3.09A2.46,2.46,0,0,1,256.42,222.87Z" transform="translate(-188.57 -98)"/><path class="cls-1" d="M224.46,239.75a2.61,2.61,0,0,1-.49-5.17c.53-.11,12.22-2.56,12-14.65a2.6,2.6,0,0,1,2.57-2.65h0a2.62,2.62,0,0,1,2.61,2.57c.2,13.23-10.56,18.77-16.28,19.86A2.7,2.7,0,0,1,224.46,239.75Z" transform="translate(-188.57 -98)"/><path class="cls-1" d="M252.68,213.19a16,16,0,0,1-3.24-.31,2.61,2.61,0,1,1,1.07-5.11c.47.09,11,2,16.12-9.64a2.61,2.61,0,1,1,4.78,2.11C266.85,210.54,258.41,213.19,252.68,213.19Z" transform="translate(-188.57 -98)"/><path class="cls-1" d="M346.13,198.5c-5.26,0-18.56-1.89-22.95-20.23a15.23,15.23,0,0,1-3.1.31c-4.25,0-8.79-1.68-13.53-5a2.8,2.8,0,0,1,3.23-4.57c4.83,3.41,9.15,4.65,12.84,3.68a10,10,0,0,0,1.17-.4,3.19,3.19,0,0,1,.68-.3,14.11,14.11,0,0,0,5.75-5.82,2.79,2.79,0,0,1,5.06,2.37,20,20,0,0,1-6.85,7.63c3.56,16.41,15,17,18.2,16.78a31.54,31.54,0,0,0-5.06-49.62,2.8,2.8,0,0,1-1-3.63A14,14,0,0,0,328,119.36a14.22,14.22,0,0,0-2.17.17c-1.18,6.32-6.09,20.65-26.26,21.74h-.15a2.8,2.8,0,0,1-.15-5.59c17-.91,20.48-13,21.17-17.56a2.41,2.41,0,0,1-.12-.65,20.84,20.84,0,0,0-41.63,1.37v34.65c5.57-4.1,15.59-8.18,29.65-1a2.79,2.79,0,0,1-2.53,5c-15.92-8.11-25,.94-27.12,3.53v39.08c5,10.63,14.21,10.19,16.51,9.9,4-3,9.84-5.3,18.17-4.84a2.79,2.79,0,1,1-.31,5.58c-17.63-.94-20.81,12.53-20.94,13.13a2.8,2.8,0,0,1-2.73,2.21,2.93,2.93,0,0,1-.58-.06,2.79,2.79,0,0,1-2.16-3.31,23,23,0,0,1,3.38-7.27,20.85,20.85,0,0,1-11.34-5.71v26.89a20.57,20.57,0,0,0,40.19,6.18c-6.08-2.56-13.41-8.62-13.24-20a2.8,2.8,0,0,1,2.8-2.75h0a2.78,2.78,0,0,1,2.75,2.83c-.2,12.94,12.32,15.57,12.88,15.68l.21.06a26.58,26.58,0,0,0,22-40.14Z" transform="translate(-188.57 -98)"/><path class="cls-1" d="M389.33,193.76V164.27h25v5.15H394.45v24.34Zm8.89-12.21v-4.5h14.93v4.5Z" transform="translate(-188.57 -98)"/><path class="cls-1" d="M426.05,193.76V164.27h26.32v5.15H431.16v19.19h21.26v5.15Zm8.88-12.82V176.6h16.35v4.34Z" transform="translate(-188.57 -98)"/><path class="cls-1" d="M492.33,193.76l-7.46-8.19h-11V181h12.3a5.45,5.45,0,0,0,4.21-1.52,6.19,6.19,0,0,0,1.42-4.4,5.63,5.63,0,0,0-1.48-4.28,5.8,5.8,0,0,0-4.15-1.4H470.06v24.34H465V164.27h21.18a12.72,12.72,0,0,1,4.5.75,9.33,9.33,0,0,1,3.37,2.15,9.46,9.46,0,0,1,2.11,3.39,13,13,0,0,1,.73,4.46,11.24,11.24,0,0,1-1.61,6.19,9,9,0,0,1-4.48,3.59l8.88,9Z" transform="translate(-188.57 -98)"/><path class="cls-1" d="M515.21,172.18v21.58H510.3V167a3.35,3.35,0,0,1,.71-2.25,2.41,2.41,0,0,1,1.93-.84,2.67,2.67,0,0,1,1.1.25,3.88,3.88,0,0,1,1.09.81l20.81,20.65V164h4.91v27a3.36,3.36,0,0,1-.71,2.28,2.34,2.34,0,0,1-1.85.81,3.29,3.29,0,0,1-2.35-1.1Z" transform="translate(-188.57 -98)"/><path class="cls-1" d="M584.7,193.76l-4.42-7.42H566.33l2.43-4.18h9l-6.58-11-13.38,22.63H552l17-28.23a4,4,0,0,1,1.06-1.22,2.36,2.36,0,0,1,1.46-.44,2.33,2.33,0,0,1,1.44.44,4.19,4.19,0,0,1,1,1.22l17,28.23Z" transform="translate(-188.57 -98)"/><path class="cls-1" d="M607,172.18v21.58h-4.9V167a3.35,3.35,0,0,1,.7-2.25,2.41,2.41,0,0,1,1.93-.84,2.64,2.64,0,0,1,1.1.25,3.88,3.88,0,0,1,1.09.81l20.81,20.65V164h4.91v27a3.36,3.36,0,0,1-.71,2.28,2.33,2.33,0,0,1-1.84.81,3.31,3.31,0,0,1-2.36-1.1Z" transform="translate(-188.57 -98)"/><path class="cls-1" d="M645.71,193.76V164.27h17.08a15.22,15.22,0,0,1,5.76,1.06,13.32,13.32,0,0,1,4.55,3,13.61,13.61,0,0,1,3,4.56,15.63,15.63,0,0,1,1.07,5.86,16.44,16.44,0,0,1-1.07,6,14.5,14.5,0,0,1-3,4.76,13.85,13.85,0,0,1-4.55,3.17,14.18,14.18,0,0,1-5.76,1.15Zm17.08-5.15a9,9,0,0,0,6.59-2.74,8.92,8.92,0,0,0,1.93-3.06,11.06,11.06,0,0,0,0-7.69,8.76,8.76,0,0,0-4.85-5,9.38,9.38,0,0,0-3.67-.71h-12v19.19Z" transform="translate(-188.57 -98)"/><path class="cls-1" d="M689.49,193.76V164.27h26.32v5.15H694.6v19.19h21.25v5.15Zm8.88-12.82V176.6h16.35v4.34Z" transform="translate(-188.57 -98)"/><path class="cls-1" d="M728.39,193.76v-5.15H750.5a4.45,4.45,0,0,0,3.18-1.05,3.67,3.67,0,0,0,1.12-2.8,3.53,3.53,0,0,0-1.12-2.86,4.72,4.72,0,0,0-3.18-1H737a10.61,10.61,0,0,1-3.75-.63,7.82,7.82,0,0,1-2.84-1.74,7.66,7.66,0,0,1-1.79-2.66,8.78,8.78,0,0,1-.63-3.36,9.14,9.14,0,0,1,.59-3.31,7.08,7.08,0,0,1,1.74-2.62,8.35,8.35,0,0,1,2.87-1.72,11.14,11.14,0,0,1,3.89-.63h21.18v5.15H737a3.77,3.77,0,0,0-2.76,1,3.53,3.53,0,0,0-1,2.65,3.45,3.45,0,0,0,1,2.64,3.79,3.79,0,0,0,2.7.93H750.5c3,0,5.28.71,6.83,2.11s2.34,3.55,2.34,6.41a10.07,10.07,0,0,1-.57,3.45,7.48,7.48,0,0,1-1.71,2.74,7.69,7.69,0,0,1-2.86,1.8,11.24,11.24,0,0,1-4,.65Z" transform="translate(-188.57 -98)"/><path class="cls-1" d="M431.84,215.67l-1.93,3.65a1.48,1.48,0,0,1-.48.51,1.24,1.24,0,0,1-.63.17,1.22,1.22,0,0,1-1.13-.68l-6.43-11.92h2.6l5,9.56,1.88-3.39-3.23-6.17h2.61l4.81,9.56L440,207.4h2.43L436,219.32a1.41,1.41,0,0,1-.49.51,1.33,1.33,0,0,1-.64.17,1.3,1.3,0,0,1-.64-.17,1.37,1.37,0,0,1-.47-.51Z" transform="translate(-188.57 -98)"/><path class="cls-1" d="M458,219.83a5.76,5.76,0,0,1-2.4-.49,5.9,5.9,0,0,1-1.92-1.33,6,6,0,0,1-1.26-2,6.91,6.91,0,0,1-.46-2.51,6.7,6.7,0,0,1,.46-2.5,5.53,5.53,0,0,1,1.26-1.92,5.65,5.65,0,0,1,1.92-1.23,6.45,6.45,0,0,1,2.4-.44h3a6.54,6.54,0,0,1,2.47.45,5.39,5.39,0,0,1,3.17,3.17,6.54,6.54,0,0,1,.45,2.47,6.91,6.91,0,0,1-.45,2.51,6.2,6.2,0,0,1-1.27,2,6,6,0,0,1-4.37,1.82Zm3-2.17a3.91,3.91,0,0,0,1.58-.31,3.72,3.72,0,0,0,2.05-2.14,4.67,4.67,0,0,0,0-3.24,3.65,3.65,0,0,0-2.05-2.1,4.08,4.08,0,0,0-1.58-.3h-3a3.93,3.93,0,0,0-1.55.3,3.72,3.72,0,0,0-1.22.83,3.76,3.76,0,0,0-.8,1.27,4.25,4.25,0,0,0-.29,1.62,4.32,4.32,0,0,0,.29,1.62,3.66,3.66,0,0,0,.8,1.29,3.62,3.62,0,0,0,1.22.85,3.77,3.77,0,0,0,1.55.31Z" transform="translate(-188.57 -98)"/><path class="cls-1" d="M490.69,219.83l-3.14-3.45H482.9v-1.92h5.18a2.32,2.32,0,0,0,1.78-.64,2.67,2.67,0,0,0,.59-1.85,2.38,2.38,0,0,0-.62-1.81,2.47,2.47,0,0,0-1.75-.59h-6.77v10.26h-2.15V207.4h8.92a5.31,5.31,0,0,1,1.89.32,3.84,3.84,0,0,1,2.31,2.33,5.34,5.34,0,0,1,.31,1.88,4.82,4.82,0,0,1-.67,2.61,3.87,3.87,0,0,1-1.89,1.51l3.74,3.78Z" transform="translate(-188.57 -98)"/><path class="cls-1" d="M505.15,219.83V207.4h2.17v12.43Zm10.24,0-6.95-5.47a1,1,0,0,1-.37-.44,1.4,1.4,0,0,1-.08-.47,1.36,1.36,0,0,1,.1-.51,1.39,1.39,0,0,1,.45-.48l6.58-5.06h3.33l-8.13,6.07,8.39,6.36Z" transform="translate(-188.57 -98)"/><path class="cls-1" d="M530.49,219.83V207.4h2.17v12.43Z" transform="translate(-188.57 -98)"/><path class="cls-1" d="M547.2,210.73v9.1h-2.07V208.55a1.41,1.41,0,0,1,.3-1,1,1,0,0,1,.82-.35,1.09,1.09,0,0,1,.46.1,1.64,1.64,0,0,1,.46.34l8.77,8.7V207.3H558v11.38a1.42,1.42,0,0,1-.3,1,1,1,0,0,1-.78.34,1.38,1.38,0,0,1-1-.46Z" transform="translate(-188.57 -98)"/><path class="cls-1" d="M576,219.83a5.76,5.76,0,0,1-2.4-.49,5.9,5.9,0,0,1-1.92-1.33,6,6,0,0,1-1.26-2,6.91,6.91,0,0,1-.45-2.51,6.7,6.7,0,0,1,.45-2.5,5.53,5.53,0,0,1,1.26-1.92,5.65,5.65,0,0,1,1.92-1.23,6.45,6.45,0,0,1,2.4-.44h6.73v2.17H576a3.93,3.93,0,0,0-1.55.3,3.72,3.72,0,0,0-1.22.83,3.76,3.76,0,0,0-.8,1.27,4.25,4.25,0,0,0-.29,1.62,4.32,4.32,0,0,0,.29,1.62,3.66,3.66,0,0,0,.8,1.29,3.62,3.62,0,0,0,1.22.85,3.77,3.77,0,0,0,1.55.31h5.31v-3.23h-5.6V212.6h7.79v7.23Z" transform="translate(-188.57 -98)"/><path class="cls-1" d="M616.75,219.83a5.82,5.82,0,0,1-2.4-.49,6,6,0,0,1-1.91-1.33,6.2,6.2,0,0,1-1.27-2,6.91,6.91,0,0,1-.45-2.51,6.7,6.7,0,0,1,.45-2.5,5.56,5.56,0,0,1,3.18-3.15,6.52,6.52,0,0,1,2.4-.44h6.74v2.17h-6.74a3.92,3.92,0,0,0-1.54.3,3.76,3.76,0,0,0-1.23.83,3.92,3.92,0,0,0-.8,1.27,4.45,4.45,0,0,0-.29,1.62,4.52,4.52,0,0,0,.29,1.62,3.81,3.81,0,0,0,.8,1.29,3.66,3.66,0,0,0,1.23.85,3.75,3.75,0,0,0,1.54.31h5.32v-3.23h-5.61V212.6h7.8v7.23Z" transform="translate(-188.57 -98)"/><path class="cls-1" d="M648.05,219.83l-3.14-3.45h-4.65v-1.92h5.18a2.3,2.3,0,0,0,1.77-.64,2.62,2.62,0,0,0,.6-1.85,2.42,2.42,0,0,0-.62-1.81,2.47,2.47,0,0,0-1.75-.59h-6.77v10.26h-2.16V207.4h8.93a5.31,5.31,0,0,1,1.89.32,3.81,3.81,0,0,1,1.42.91,3.77,3.77,0,0,1,.89,1.42,5.34,5.34,0,0,1,.31,1.88,4.73,4.73,0,0,1-.68,2.61,3.78,3.78,0,0,1-1.89,1.51l3.75,3.78Z" transform="translate(-188.57 -98)"/><path class="cls-1" d="M667.9,219.83a5.84,5.84,0,0,1-2.41-.49,5.88,5.88,0,0,1-3.17-3.34,6.71,6.71,0,0,1-.46-2.51,6.51,6.51,0,0,1,.46-2.5,5.53,5.53,0,0,1,1.26-1.92,5.7,5.7,0,0,1,1.91-1.23,6.54,6.54,0,0,1,2.41-.44h3a6.54,6.54,0,0,1,2.47.45,5.39,5.39,0,0,1,3.17,3.17,6.54,6.54,0,0,1,.45,2.47,6.71,6.71,0,0,1-.46,2.51,6,6,0,0,1-1.26,2,6,6,0,0,1-4.37,1.82Zm3-2.17a3.83,3.83,0,0,0,1.57-.31,3.61,3.61,0,0,0,1.24-.85,3.7,3.7,0,0,0,.82-1.29,4.67,4.67,0,0,0,0-3.24,3.81,3.81,0,0,0-.82-1.27,3.7,3.7,0,0,0-1.24-.83,4,4,0,0,0-1.57-.3h-3a3.93,3.93,0,0,0-1.55.3,3.72,3.72,0,0,0-1.22.83,4,4,0,0,0-.81,1.27,4.45,4.45,0,0,0-.29,1.62,4.52,4.52,0,0,0,.29,1.62,3.83,3.83,0,0,0,.81,1.29,3.62,3.62,0,0,0,1.22.85,3.77,3.77,0,0,0,1.55.31Z" transform="translate(-188.57 -98)"/><path class="cls-1" d="M700.13,207.4h2.12v6.94a7.63,7.63,0,0,1-.37,2.51,4.19,4.19,0,0,1-1.18,1.77,5.28,5.28,0,0,1-2.08,1,14.08,14.08,0,0,1-6.15,0,5.28,5.28,0,0,1-2.08-1,4.19,4.19,0,0,1-1.18-1.77,7.63,7.63,0,0,1-.37-2.51V207.4h2.23v6.94a4.79,4.79,0,0,0,.24,1.61,2.33,2.33,0,0,0,.75,1.09,3.26,3.26,0,0,0,1.39.63,12.32,12.32,0,0,0,4.31,0,3.26,3.26,0,0,0,1.39-.63,2.33,2.33,0,0,0,.75-1.09,4.81,4.81,0,0,0,.23-1.61Z" transform="translate(-188.57 -98)"/><path class="cls-1" d="M718.22,216.38v-2.11h5a2.39,2.39,0,0,0,1.79-.65,2.35,2.35,0,0,0,.64-1.71,2.31,2.31,0,0,0-.64-1.7,2.42,2.42,0,0,0-1.79-.64h-6.58v10.26h-2.15V207.4h8.73a5.44,5.44,0,0,1,1.92.32,4,4,0,0,1,1.43.89,3.78,3.78,0,0,1,.89,1.39,5.62,5.62,0,0,1,0,3.68,4,4,0,0,1-.89,1.43,3.94,3.94,0,0,1-1.43.93,5,5,0,0,1-1.92.34Z" transform="translate(-188.57 -98)"/></svg>