<svg xmlns="http://www.w3.org/2000/svg" enable-background="new 0 0 24 24" viewBox="0 0 24 24"><path fill="#303c42" d="M23.866,4.43c-0.153-0.165-0.398-0.207-0.599-0.103c-0.143,0.075-0.421,0.174-0.747,0.27   c0.391-0.513,0.708-1.096,0.844-1.618c0.053-0.203-0.027-0.418-0.2-0.538c-0.174-0.12-0.403-0.118-0.574,0.004   c-0.293,0.209-1.653,0.811-2.53,1.005C18.949,2.449,17.841,2,16.501,2c-1.005,0-1.936,0.287-3.018,0.929   c-1.887,1.12-2.213,3.541-2.074,5.025C6.287,7.467,3.414,4.487,2.393,3.19C2.291,3.06,2.129,2.999,1.965,3.001   C1.8,3.012,1.651,3.105,1.568,3.248C0.347,5.341,0.847,7.494,1.786,8.945C1.632,8.84,1.475,8.722,1.319,8.593   c-0.15-0.123-0.357-0.15-0.532-0.067C0.612,8.608,0.5,8.784,0.5,8.978c0,2.198,1.287,3.768,2.543,4.66   c-0.137-0.037-0.271-0.077-0.394-0.115c-0.188-0.057-0.392-0.002-0.522,0.145c-0.13,0.147-0.163,0.356-0.083,0.536   c0.803,1.805,2.401,3.151,4.19,3.619c-1.555,0.949-3.695,1.415-5.675,1.182c-0.234-0.032-0.459,0.114-0.533,0.34   c-0.074,0.226,0.021,0.473,0.227,0.59C2.686,21.324,5.215,22,7.982,22c0.006,0,0.012,0,0.018,0   c3.781-0.003,7.332-1.648,9.998-4.632c2.573-2.879,3.923-6.566,3.646-9.923c0.662-0.494,1.662-1.417,2.28-2.41   C24.044,4.843,24.02,4.595,23.866,4.43z"/><path fill="#26c6da" d="M20.841,6.789c-0.155,0.104-0.24,0.286-0.219,0.472c0.348,3.109-0.944,6.727-3.369,9.441   C14.779,19.47,11.493,20.996,8,21c-0.006,0-0.011,0-0.017,0c-1.866,0-3.617-0.329-5.302-1c1.979-0.213,3.893-0.979,5.156-2.131   c0.151-0.138,0.203-0.354,0.131-0.545S7.716,17.005,7.511,17c-1.546-0.035-3.052-0.903-4.006-2.243   c0.677,0.099,1.329,0.043,1.82-0.378c0.151-0.13,0.211-0.336,0.152-0.526c-0.059-0.19-0.225-0.328-0.422-0.35   c-0.551-0.062-2.875-1.151-3.435-3.481C2.217,10.363,2.93,10.626,3.6,10.49c0.203-0.042,0.359-0.203,0.394-0.407   C4.027,9.879,3.933,9.675,3.755,9.57C2.84,9.028,1.204,6.802,2.115,4.411c1.47,1.63,4.653,4.309,9.858,4.588   c0.164,0.006,0.31-0.059,0.411-0.18c0.101-0.121,0.139-0.283,0.102-0.437c-0.244-1.014-0.204-3.579,1.507-4.593   C14.924,3.236,15.674,3,16.501,3c1.155,0,2.07,0.404,3.061,1.35c0.112,0.106,0.263,0.156,0.417,0.133   c0.492-0.072,1.171-0.295,1.785-0.54c-0.363,0.486-0.798,0.892-1.115,1.021c-0.222,0.09-0.349,0.325-0.303,0.56   c0.046,0.235,0.252,0.404,0.491,0.404c0,0,0.001,0,0.002,0c0.321-0.001,0.772-0.074,1.229-0.178   C21.605,6.213,21.14,6.59,20.841,6.789z"/><path fill="#fff" d="M12.487 8.457c.126.01.238.034.366.041.164.006.31-.059.411-.18.101-.121.139-.283.102-.437-.236-.98-.191-3.393 1.353-4.472-.232.105-.471.228-.725.379-1.71 1.015-1.751 3.579-1.507 4.593C12.492 8.407 12.484 8.432 12.487 8.457zM6.961 18.534c.661-.323 1.259-.713 1.755-1.165.151-.138.203-.354.131-.545s-.252-.32-.457-.325c-1.372-.031-2.71-.72-3.66-1.81-.376.117-.792.13-1.224.067.954 1.34 2.459 2.208 4.006 2.243.205.005.385.133.457.325s.02.407-.131.545C7.573 18.11 7.276 18.329 6.961 18.534zM8.878 20.499c-.006 0-.011 0-.017 0-1.63 0-3.169-.267-4.656-.777C3.709 19.85 3.198 19.945 2.681 20c1.685.671 3.436 1 5.302 1C7.988 21 7.994 21 8 21c2.28-.002 4.466-.664 6.401-1.885C12.691 20.009 10.82 20.497 8.878 20.499zM3.755 9.57c.159.094.237.27.23.451C4.15 10.03 4.316 10.023 4.479 9.99c.203-.042.359-.203.394-.407.034-.204-.061-.408-.238-.513C3.868 8.616 2.603 6.982 2.743 5.06 2.507 4.832 2.298 4.613 2.115 4.411 1.204 6.802 2.84 9.028 3.755 9.57zM5.056 13.503c.198.022.364.16.422.35.043.139.004.276-.069.396.291-.058.562-.17.795-.37.151-.13.211-.336.152-.526-.059-.19-.225-.328-.422-.35-.467-.052-2.204-.854-3.063-2.518-.437-.07-.868-.244-1.251-.463C2.18 12.351 4.505 13.441 5.056 13.503z" opacity=".2"/><linearGradient id="a" x1=".306" x2="19.821" y1="5.899" y2="14.998" gradientUnits="userSpaceOnUse"><stop offset="0" stop-color="#fff" stop-opacity=".2"/><stop offset="1" stop-color="#fff" stop-opacity="0"/></linearGradient><path fill="url(#a)" d="M23.866,4.43c-0.153-0.165-0.398-0.207-0.599-0.103c-0.143,0.075-0.421,0.174-0.747,0.27   c0.391-0.513,0.708-1.096,0.844-1.618c0.053-0.203-0.027-0.418-0.2-0.538c-0.174-0.12-0.403-0.118-0.574,0.004   c-0.293,0.209-1.653,0.811-2.53,1.005C18.949,2.449,17.841,2,16.501,2c-1.005,0-1.936,0.287-3.018,0.929   c-1.887,1.12-2.213,3.541-2.074,5.025C6.287,7.467,3.414,4.487,2.393,3.19C2.291,3.06,2.129,2.999,1.965,3.001   C1.8,3.012,1.651,3.105,1.568,3.248C0.347,5.341,0.847,7.494,1.786,8.945C1.632,8.84,1.475,8.722,1.319,8.593   c-0.15-0.123-0.357-0.15-0.532-0.067C0.612,8.608,0.5,8.784,0.5,8.978c0,2.198,1.287,3.768,2.543,4.66   c-0.137-0.037-0.271-0.077-0.394-0.115c-0.188-0.057-0.392-0.002-0.522,0.145c-0.13,0.147-0.163,0.356-0.083,0.536   c0.803,1.805,2.401,3.151,4.19,3.619c-1.555,0.949-3.695,1.415-5.675,1.182c-0.234-0.032-0.459,0.114-0.533,0.34   c-0.074,0.226,0.021,0.473,0.227,0.59C2.686,21.324,5.215,22,7.982,22c0.006,0,0.012,0,0.018,0   c3.781-0.003,7.332-1.648,9.998-4.632c2.573-2.879,3.923-6.566,3.646-9.923c0.662-0.494,1.662-1.417,2.28-2.41   C24.044,4.843,24.02,4.595,23.866,4.43z"/></svg>